<svg xmlns="http://www.w3.org/2000/svg" xmlns:xlink="http://www.w3.org/1999/xlink" width="227.902" height="110.167" viewBox="0 0 227.902 110.167">
  <defs>
    <linearGradient id="linear-gradient" x1="0.5" y1="1" x2="0.5" y2="0.041" gradientUnits="objectBoundingBox">
      <stop offset="0" stop-color="#2a7aef"/>
      <stop offset="0.409" stop-color="#08cbfe"/>
      <stop offset="1" stop-color="#00fe9b"/>
    </linearGradient>
  </defs>
  <g id="Group_92" data-name="Group 92" transform="translate(-283.56 -444.516)">
    <g id="Group_4" data-name="Group 4" transform="translate(378.868 453.299)">
      <g id="Group_1" data-name="Group 1" transform="translate(0)">
        <path id="Path_1" data-name="Path 1" d="M467.82,460.459v4.072H455.879c-2.105,0-3.037,1.139-3.037,2.761,0,1.415.724,2.761,3.451,2.761h5.453c6.35,0,7.834,3.52,7.834,6.867,0,3.934-2.105,6.834-7.42,6.834H449.184v-4.073H462.3c2.208,0,3.209-1.207,3.209-2.9,0-1.519-.794-2.9-3.658-2.9h-5.419c-6.212,0-7.661-3.486-7.661-6.729,0-3.865,2.071-6.7,7.247-6.7Z" transform="translate(-448.77 -460.045)" fill="#162274"/>
        <path id="Path_2" data-name="Path 2" d="M493.26,483.451h-4.349l7.213-19.4c.9-2.657,2.381-4.314,5.487-4.314,3.452,0,5.177,2.036,5.177,5.074v13.769a1.183,1.183,0,0,0,1.173,1.312,1.367,1.367,0,0,0,1.311-.966l5.66-14.875c.9-2.657,2.381-4.314,5.487-4.314,3.451,0,5.176,2.036,5.176,5.074v18.636H521.49V465.021a1.2,1.2,0,0,0-1.173-1.346,1.39,1.39,0,0,0-1.276,1l-5.661,14.875c-.9,2.657-2.416,4.314-5.521,4.314-3.416,0-5.142-2.036-5.142-5.108V465.021a1.219,1.219,0,0,0-1.207-1.346,1.39,1.39,0,0,0-1.277,1Z" transform="translate(-465.754 -459.741)" fill="#162274"/>
        <path id="Path_3" data-name="Path 3" d="M562.974,483.451h-4.486l8.179-20.707c.863-2.174,2.451-3,4.9-3,2.416,0,4,.828,4.831,3l7.869,20.707h-4.521l-7.075-18.74a1.108,1.108,0,0,0-1.138-.793,1.177,1.177,0,0,0-1.174.793Z" transform="translate(-495.192 -459.741)" fill="#162274"/>
        <path id="Path_4" data-name="Path 4" d="M621.67,460.459c5.246,0,7.489,3.245,7.489,6.971,0,2.9-1.38,6-4.935,7.006l5.418,9.318h-4.521l-5.314-9.008h-6.075a.514.514,0,0,0-.587.587v8.421h-4.072V474.54c0-2.623,1.1-3.693,3.659-3.693h9.076a3.017,3.017,0,0,0,3.244-3.244,2.928,2.928,0,0,0-3.244-3.071H609.039v-4.072Z" transform="translate(-516.581 -460.045)" fill="#162274"/>
        <path id="Path_5" data-name="Path 5" d="M665.628,460.459v4.072h-6.8v19.223h-4.107V464.531h-6.8v-4.072Z" transform="translate(-533.034 -460.045)" fill="#162274"/>
      </g>
      <g id="Group_2" data-name="Group 2" transform="translate(0 27.215)">
        <path id="Path_6" data-name="Path 6" d="M471.975,507.77v4.838h-10.7c-5.33,0-7.666,2.665-7.666,9.02,0,6.314,2.3,8.978,7.666,8.978h10.7v4.838h-10.7c-8.077,0-12.5-4.551-12.5-13.816,0-9.307,4.468-13.858,12.5-13.858Z" transform="translate(-448.77 -507.278)" fill="#162274"/>
        <path id="Path_7" data-name="Path 7" d="M503.855,507.77v11.275H518V507.77h4.879v27.674H518V523.883H503.855v11.562h-4.838V507.77Z" transform="translate(-470.03 -507.278)" fill="#162274"/>
        <path id="Path_8" data-name="Path 8" d="M552.817,535.083h-5.33l9.717-24.6c1.025-2.583,2.911-3.567,5.822-3.567,2.87,0,4.756.985,5.739,3.567l9.348,24.6h-5.371l-8.4-22.263a1.317,1.317,0,0,0-1.353-.943,1.4,1.4,0,0,0-1.394.943Z" transform="translate(-490.538 -506.916)" fill="#162274"/>
        <path id="Path_9" data-name="Path 9" d="M612.523,507.77v27.674h-4.838V507.77Z" transform="translate(-516.009 -507.278)" fill="#162274"/>
        <path id="Path_10" data-name="Path 10" d="M632.422,535.083h-4.838v-22.14c0-3.608,2.05-6.027,6.355-6.027,3.854,0,5.576,1.968,6.724,5.125l8.077,17.671a1.869,1.869,0,0,0,1.763,1.148,1.488,1.488,0,0,0,1.64-1.558V507.409h4.879v22.1c0,3.649-2.091,6.068-6.355,6.068-3.854,0-5.617-1.968-6.765-5.124l-8.077-17.671a1.708,1.708,0,0,0-1.722-1.189,1.491,1.491,0,0,0-1.681,1.6Z" transform="translate(-524.428 -506.916)" fill="#162274"/>
      </g>
      <g id="Group_3" data-name="Group 3" transform="translate(0 58.866)">
        <path id="Path_11" data-name="Path 11" d="M454.556,562.884v21.625c0,3.187,1.569,5.688,6.767,5.688H474.17v5.787H460.98c-8.778,0-12.21-4.805-12.21-11.425V562.884Z" transform="translate(-448.77 -562.248)" fill="#162274"/>
        <path id="Path_12" data-name="Path 12" d="M503.255,595.469H496.88L508.5,566.048c1.226-3.089,3.482-4.267,6.963-4.267,3.432,0,5.688,1.177,6.864,4.267l11.181,29.421h-6.424l-10.052-26.627a1.576,1.576,0,0,0-1.618-1.128,1.673,1.673,0,0,0-1.667,1.128Z" transform="translate(-469.126 -561.781)" fill="#162274"/>
        <path id="Path_13" data-name="Path 13" d="M586.187,562.8c7.8,0,11.082,3.678,11.082,9.072,0,3.825-1.667,6.129-4.756,7.355,3.138,1.276,4.9,3.727,4.9,7.552,0,5.3-3.285,9.121-11.082,9.121H571.623c-1.864,0-2.746-.883-2.746-2.7V565.5c0-1.814.883-2.7,2.746-2.7Zm-11.621,13.974h11.769c3.432,0,5.1-1.274,5.1-3.971,0-2.6-1.519-4.316-5.051-4.316H575.2a.557.557,0,0,0-.637.589Zm0,12.848c0,.392.245.539.637.539h11.278c3.481,0,5.1-1.619,5.1-4.315,0-2.8-1.716-4.266-5.1-4.266H574.565Z" transform="translate(-499.589 -562.213)" fill="#162274"/>
        <path id="Path_14" data-name="Path 14" d="M654.425,562.8v5.786H637.459c-2.991,0-4.315,1.619-4.315,3.923,0,2.01,1.03,3.923,4.9,3.923H645.8c9.023,0,11.131,5,11.131,9.758,0,5.591-2.992,9.71-10.543,9.71H627.946v-5.787H646.58c3.138,0,4.56-1.716,4.56-4.118,0-2.158-1.128-4.119-5.2-4.119h-7.7c-8.826,0-10.886-4.953-10.886-9.562,0-5.492,2.943-9.513,10.3-9.513Z" transform="translate(-524.332 -562.213)" fill="#162274"/>
      </g>
    </g>
    <path id="Path_15" data-name="Path 15" d="M342.434,483.675a20.109,20.109,0,0,1,6.433-39.159v10.135a9.971,9.971,0,0,0-5.879,18.024,42.83,42.83,0,0,1-11.535,82.008V544.457a32.695,32.695,0,0,0,10.981-60.782Zm-21.116,71.008a42.828,42.828,0,0,1-4.5-84.272v10.482a32.7,32.7,0,0,0,4.5,63.563Zm-.062-95.668h-5.585V464.6h5.585Zm-5.585-9.16h-9.16v9.16h9.16Zm-1.045,43.493c0,4.076-.531,9.836,1.374,12.981a11.716,11.716,0,0,0,3.367,3.545c1.329,1.019,2.437,1.949,3.81,3.013l7.488,5.981c1.506,1.551,1.151,2.88,1.151,5.715v13.778c7.931-4.209,6.247-8.683,6.247-18.475,0-4.608-5.272-7.975-8.772-10.633l-7.089-5.671c-1.462-1.506-1.019-2.835-1.019-5.583V484.886c-2.792.665-6.558,5.006-6.558,8.462Zm17.81,14.665-3.145-2.835h0m6.6,4.137h-2.039a2.173,2.173,0,0,1-2.174-2.173V484.886h2.039a4.347,4.347,0,0,1,4.347,4.347v17.909A2.173,2.173,0,0,1,335.89,509.315ZM318.96,538.038H321v-22.58a2.174,2.174,0,0,0-2.173-2.174h-2.039a2.174,2.174,0,0,0-2.174,2.174v18.233A4.347,4.347,0,0,0,318.96,538.038Zm8.79-32.86h2.039V483.317a2.174,2.174,0,0,0-2.173-2.174h-2.039a2.174,2.174,0,0,0-2.174,2.174v17.514A4.347,4.347,0,0,0,327.75,505.178ZM325.442,518.1H323.4v34.41a2.173,2.173,0,0,0,2.174,2.173h2.039a2.173,2.173,0,0,0,2.173-2.173V522.447A4.346,4.346,0,0,0,325.442,518.1Z" transform="translate(0 0)" fill-rule="evenodd" fill="url(#linear-gradient)"/>
  </g>
</svg>
